<svg id="Layer_1" data-name="Layer 1" xmlns="http://www.w3.org/2000/svg" viewBox="0 0 868.19 871.37"><defs><style>.cls-1,.cls-3{fill:#022c46;}.cls-2{fill:#b76833;}.cls-3{font-size:124.06px;stroke:#231f20;}.cls-3,.cls-4{stroke-miterlimit:10;font-family:Arenq;}.cls-4{font-size:117.31px;fill:#fff;stroke:#fff;}</style></defs><title>College Match Logo</title><path class="cls-1" d="M633.16,546.79s-21.48,12-70.09-7.27-77.42,1.45-77.42,5.28V362.51c0-3.83,29.07-24.59,77.69-5.28s69.82,7.32,69.82,7.32Z" transform="translate(-56.95 -22.09)"/><path class="cls-1" d="M411,357.23c-5.14,2,.53,0-13.82,5.1l-19.91,5.33c-14.32,2.23-30.65-3.11-30.65-3.11V546.79s15.15,12,63.76-7.27,71.1,1.45,71.1,5.28V362.51C481.43,358.68,459.56,337.92,411,357.23Z" transform="translate(-56.95 -22.09)"/><path class="cls-2" d="M534,763.39s-35.13-42.77-117.09-56.64c-79.78-18.62-176.32-96.51-201.08-205.85-28.68-108.32,19.6-221.56,81.31-274.5,61.31-55.59,118.76-64.23,117.6-65,1.39,1.66-55.58,11.57-115.32,67.39-60.25,53.25-106.11,165-77,270.44,25.28,106.46,119.79,181,197,198.35A268.13,268.13,0,0,1,468.78,710c54.48,19.32,75.43,44.25,75.43,44.25Z" transform="translate(-56.95 -22.09)"/><path class="cls-2" d="M448.12,763.39s35.12-42.77,117.08-56.64C645,688.13,741.52,610.24,766.28,500.9,795,392.58,746.69,279.34,685,226.4c-61.3-55.59-118.76-64.23-117.59-65C566,163.08,623,173,682.7,228.81c60.25,53.25,106.11,165,77,270.44-25.26,106.46-119.78,181-197,198.35A268.24,268.24,0,0,0,513.32,710c-54.47,19.32-75.42,44.25-75.42,44.25Z" transform="translate(-56.95 -22.09)"/><path class="cls-2" d="M393.27,639.07s22.34,7.69,29.75,25.51c9.25,22.27,5.25,40.92,5.25,40.92s-22.38-11.64-29.88-23.72C387.87,664.83,393.27,639.07,393.27,639.07Z" transform="translate(-56.95 -22.09)"/><path class="cls-2" d="M354.06,736.91s22.59,6.93,39.07-3.12c20.59-12.56,28.32-30,28.32-30s-25-3.76-38.12,1.59C364.85,712.91,354.06,736.91,354.06,736.91Z" transform="translate(-56.95 -22.09)"/><path class="cls-2" d="M358.49,619.87s20.26,11.22,24.38,29.69C388,672.62,381,689.94,381,689.94s-19.63-15-24.81-28C348.9,643.81,358.49,619.87,358.49,619.87Z" transform="translate(-56.95 -22.09)"/><path class="cls-2" d="M304,707.62s20.63,10.54,38.25,3.64c22-8.62,32.42-24.12,32.42-24.12s-23.44-7.88-37.06-5C318.49,686.29,304,707.62,304,707.62Z" transform="translate(-56.95 -22.09)"/><path class="cls-2" d="M327.26,595s17.63,14.28,18.47,32.79c1,23.14-8.71,38.66-8.71,38.66s-16.37-17.86-19.17-31.23C313.9,616.44,327.26,595,327.26,595Z" transform="translate(-56.95 -22.09)"/><path class="cls-2" d="M259.73,670.38s18.11,13.68,36.29,10c22.7-4.58,35.41-17.76,35.41-17.76s-21.29-11.59-34.93-11.09C277.35,652.26,259.73,670.38,259.73,670.38Z" transform="translate(-56.95 -22.09)"/><path class="cls-2" d="M300.76,564.75s14.59,16.78,12.24,34.79c-2.92,22.51-15,35.83-15,35.83s-12.77-20-13.21-33.4C284.23,583.2,300.76,564.75,300.76,564.75Z" transform="translate(-56.95 -22.09)"/><path class="cls-2" d="M222.76,626s15.15,16.29,33.32,15.85c22.69-.55,37.19-11.13,37.19-11.13S274.7,616,261.45,614.13C242.84,611.55,222.76,626,222.76,626Z" transform="translate(-56.95 -22.09)"/><path class="cls-2" d="M279.72,530.49s11.24,18.67,5.9,35.66c-6.66,21.22-20.54,32-20.54,32s-8.92-21.49-7.05-34.48C260.62,545.48,279.72,530.49,279.72,530.49Z" transform="translate(-56.95 -22.09)"/><path class="cls-2" d="M194,576.37s11.85,18.29,29.46,21c22,3.33,37.79-4.4,37.79-4.4s-15.41-17.46-27.88-21.48C215.86,565.8,194,576.37,194,576.37Z" transform="translate(-56.95 -22.09)"/><path class="cls-2" d="M265.21,493.25s7.66,19.94-.38,35.42c-10,19.36-25.26,27.42-25.26,27.42s-5-22.26-1-34.47C244.24,504.48,265.21,493.25,265.21,493.25Z" transform="translate(-56.95 -22.09)"/><path class="cls-2" d="M174.69,522.94s8.32,19.68,24.85,25.25c20.67,7,37.23,2.19,37.23,2.19s-11.89-19.47-23.24-25.48C197.57,516.47,174.69,522.94,174.69,522.94Z" transform="translate(-56.95 -22.09)"/><path class="cls-2" d="M257.21,454.22s4,20.55-6.38,34.12c-13,17-29.06,22.16-29.06,22.16s-1-22.32,5-33.43C235.06,461.48,257.21,454.22,257.21,454.22Z" transform="translate(-56.95 -22.09)"/><path class="cls-2" d="M164.8,467.47s4.69,20.41,19.69,28.6c18.75,10.23,35.56,8.44,35.56,8.44S211.88,483.7,202,476C188,465.11,164.8,467.47,164.8,467.47Z" transform="translate(-56.95 -22.09)"/><path class="cls-2" d="M256.1,414.15s.36,20.51-12,31.85c-15.41,14.16-31.81,16.44-31.81,16.44s2.85-21.71,10.48-31.42C233.49,417.39,256.1,414.15,256.1,414.15Z" transform="translate(-56.95 -22.09)"/><path class="cls-2" d="M164.65,411.21s1,20.49,14.15,31c16.35,13.06,32.86,14.2,32.86,14.2s-4.33-21.47-12.6-30.62C187.43,412.89,164.65,411.21,164.65,411.21Z" transform="translate(-56.95 -22.09)"/><path class="cls-2" d="M261.83,373.22s-3.13,19.86-17,28.7c-17.28,11.05-33.49,10.45-33.49,10.45s6.44-20.46,15.46-28.53C239.44,372.5,261.83,373.22,261.83,373.22Z" transform="translate(-56.95 -22.09)"/><path class="cls-2" d="M174.08,354.83s-2.48,19.95,8.37,32.27c13.57,15.39,29.31,19.31,29.31,19.31s-.53-21.47-7-31.71C195.78,360.32,174.08,354.83,174.08,354.83Z" transform="translate(-56.95 -22.09)"/><path class="cls-2" d="M274.67,333.31s-6.4,18.63-21.27,24.8c-18.57,7.73-34.1,4.39-34.1,4.39s9.7-18.65,19.78-24.91C253.2,328.81,274.67,333.31,274.67,333.31Z" transform="translate(-56.95 -22.09)"/><path class="cls-2" d="M193.1,300.62s-5.78,18.84,2.61,32.57c10.47,17.17,25,23.62,25,23.62s3.14-20.8-1.32-31.78C213.12,309.61,193.1,300.62,193.1,300.62Z" transform="translate(-56.95 -22.09)"/><path class="cls-2" d="M294.46,296.29s-9.34,16.89-24.74,20.32c-19.24,4.3-33.66-1.57-33.66-1.57s12.53-16.35,23.31-20.67C274.51,288.29,294.46,296.29,294.46,296.29Z" transform="translate(-56.95 -22.09)"/><path class="cls-2" d="M221.31,250.86s-8.78,17.2-3,31.88c7.18,18.35,20.12,27.05,20.12,27.05s6.57-19.55,4.12-30.9C239.1,262.94,221.31,250.86,221.31,250.86Z" transform="translate(-56.95 -22.09)"/><path class="cls-2" d="M320.6,263.32s-11.9,14.71-27.35,15.4C274,279.6,261,271.48,261,271.48s14.89-13.65,26-16C302.7,252.21,320.6,263.32,320.6,263.32Z" transform="translate(-56.95 -22.09)"/><path class="cls-2" d="M257.72,207s-11.4,15.11-8.35,30.26c3.82,18.93,14.81,29.53,14.81,29.53s9.66-17.75,9.24-29.12C272.84,221.72,257.72,207,257.72,207Z" transform="translate(-56.95 -22.09)"/><path class="cls-2" d="M351.81,235.7s-14,12.17-29,10.2c-18.77-2.44-29.87-12.47-29.87-12.47s16.7-10.64,27.85-11C336.42,221.91,351.81,235.7,351.81,235.7Z" transform="translate(-56.95 -22.09)"/><path class="cls-2" d="M300.7,170.66s-13.59,12.63-13.22,27.78c.46,18.92,9.27,31,9.27,31S309.1,214,310.63,202.93C312.78,187.41,300.7,170.66,300.7,170.66Z" transform="translate(-56.95 -22.09)"/><path class="cls-2" d="M387.14,214.05s-15.58,9.37-29.74,4.92c-17.71-5.56-26.71-17.12-26.71-17.12s17.93-7.43,28.75-5.88C374.63,198.14,387.14,214.05,387.14,214.05Z" transform="translate(-56.95 -22.09)"/><path class="cls-2" d="M348.89,142.59s-15.26,9.89-17.48,24.56c-2.78,18.34,3.67,31.52,3.67,31.52s14.56-12.85,17.9-23.24C357.7,160.82,348.89,142.59,348.89,142.59Z" transform="translate(-56.95 -22.09)"/><path class="cls-2" d="M425.08,199.05s-16.64,6.39-29.54-.32c-16.15-8.37-22.86-21.07-22.86-21.07s18.55-4.11,28.75-.78C415.7,181.57,425.08,199.05,425.08,199.05Z" transform="translate(-56.95 -22.09)"/><path class="cls-2" d="M400.32,123.57s-16.42,6.94-21.05,20.74c-5.8,17.21-1.84,31-1.84,31s16.25-9.92,21.25-19.38C405.71,142.66,400.32,123.57,400.32,123.57Z" transform="translate(-56.95 -22.09)"/><path class="cls-2" d="M401,166.07s12.28,6.94,23.17,3.2c13.62-4.68,20.35-13.85,20.35-13.85s-14.05-5.38-22.42-4C410.41,153.47,401,166.07,401,166.07Z" transform="translate(-56.95 -22.09)"/><path class="cls-2" d="M588.82,639.07s-22.35,7.69-29.75,25.51c-9.26,22.27-5.26,40.92-5.26,40.92s22.39-11.64,29.89-23.72C594.23,664.83,588.82,639.07,588.82,639.07Z" transform="translate(-56.95 -22.09)"/><path class="cls-2" d="M628,736.91s-22.59,6.93-39.08-3.12c-20.57-12.56-28.31-30-28.31-30s25-3.76,38.12,1.59C617.24,712.91,628,736.91,628,736.91Z" transform="translate(-56.95 -22.09)"/><path class="cls-2" d="M623.6,619.87s-20.27,11.22-24.37,29.69c-5.15,23.06,1.89,40.38,1.89,40.38s19.62-15,24.8-28C633.19,643.81,623.6,619.87,623.6,619.87Z" transform="translate(-56.95 -22.09)"/><path class="cls-2" d="M678.09,707.62s-20.63,10.54-38.24,3.64c-22-8.62-32.44-24.12-32.44-24.12s23.44-7.88,37.07-5C663.59,686.29,678.09,707.62,678.09,707.62Z" transform="translate(-56.95 -22.09)"/><path class="cls-2" d="M654.84,595s-17.64,14.28-18.47,32.79c-1,23.14,8.69,38.66,8.69,38.66s16.38-17.86,19.18-31.23C668.18,616.44,654.84,595,654.84,595Z" transform="translate(-56.95 -22.09)"/><path class="cls-2" d="M722.35,670.38s-18.11,13.68-36.28,10c-22.7-4.58-35.4-17.76-35.4-17.76s21.29-11.59,34.92-11.09C704.74,652.26,722.35,670.38,722.35,670.38Z" transform="translate(-56.95 -22.09)"/><path class="cls-2" d="M681.34,564.75s-14.6,16.78-12.25,34.79c2.92,22.51,15,35.83,15,35.83s12.77-20,13.2-33.4C697.85,583.2,681.34,564.75,681.34,564.75Z" transform="translate(-56.95 -22.09)"/><path class="cls-2" d="M759.34,626S744.18,642.33,726,641.89c-22.69-.55-37.19-11.13-37.19-11.13s18.57-14.8,31.81-16.63C739.24,611.55,759.34,626,759.34,626Z" transform="translate(-56.95 -22.09)"/><path class="cls-2" d="M702.38,530.49s-11.24,18.67-5.91,35.66c6.66,21.22,20.54,32,20.54,32s8.92-21.49,7-34.48C721.46,545.48,702.38,530.49,702.38,530.49Z" transform="translate(-56.95 -22.09)"/><path class="cls-2" d="M788.08,576.37s-11.86,18.29-29.46,21c-22,3.33-37.79-4.4-37.79-4.4s15.41-17.46,27.88-21.48C766.24,565.8,788.08,576.37,788.08,576.37Z" transform="translate(-56.95 -22.09)"/><path class="cls-2" d="M716.88,493.25s-7.66,19.94.38,35.42c10,19.36,25.26,27.42,25.26,27.42s5-22.26,1-34.47C737.85,504.48,716.88,493.25,716.88,493.25Z" transform="translate(-56.95 -22.09)"/><path class="cls-2" d="M807.4,522.94s-8.33,19.68-24.86,25.25c-20.66,7-37.22,2.19-37.22,2.19s11.88-19.47,23.24-25.48C784.52,516.47,807.4,522.94,807.4,522.94Z" transform="translate(-56.95 -22.09)"/><path class="cls-2" d="M724.87,454.22s-4,20.55,6.39,34.12c13,17,29.06,22.16,29.06,22.16s1-22.32-5-33.43C747,461.48,724.87,454.22,724.87,454.22Z" transform="translate(-56.95 -22.09)"/><path class="cls-2" d="M817.3,467.47s-4.69,20.41-19.71,28.6C778.85,506.3,762,504.51,762,504.51s8.18-20.81,18.11-28.54C794.1,465.11,817.3,467.47,817.3,467.47Z" transform="translate(-56.95 -22.09)"/><path class="cls-2" d="M726,414.15s-.36,20.51,12,31.85c15.4,14.16,31.8,16.44,31.8,16.44S766.94,440.73,759.3,431C748.6,417.39,726,414.15,726,414.15Z" transform="translate(-56.95 -22.09)"/><path class="cls-2" d="M817.44,411.21s-1.05,20.49-14.14,31c-16.37,13.06-32.88,14.2-32.88,14.2s4.34-21.47,12.6-30.62C794.66,412.89,817.44,411.21,817.44,411.21Z" transform="translate(-56.95 -22.09)"/><path class="cls-2" d="M720.26,373.22s3.13,19.86,17,28.7c17.29,11.05,33.49,10.45,33.49,10.45s-6.43-20.46-15.46-28.53C742.64,372.5,720.26,373.22,720.26,373.22Z" transform="translate(-56.95 -22.09)"/><path class="cls-2" d="M808,354.83s2.47,19.95-8.38,32.27c-13.57,15.39-29.32,19.31-29.32,19.31s.54-21.47,7-31.71C786.31,360.32,808,354.83,808,354.83Z" transform="translate(-56.95 -22.09)"/><path class="cls-2" d="M707.41,333.31s6.41,18.63,21.27,24.8c18.58,7.73,34.11,4.39,34.11,4.39s-9.7-18.65-19.77-24.91C728.89,328.81,707.41,333.31,707.41,333.31Z" transform="translate(-56.95 -22.09)"/><path class="cls-2" d="M789,300.62s5.77,18.84-2.62,32.57c-10.47,17.17-25,23.62-25,23.62S758.24,336,762.7,325C769,309.61,789,300.62,789,300.62Z" transform="translate(-56.95 -22.09)"/><path class="cls-2" d="M687.62,296.29s9.35,16.89,24.75,20.32C731.6,320.91,746,315,746,315s-12.55-16.35-23.32-20.67C707.58,288.29,687.62,296.29,687.62,296.29Z" transform="translate(-56.95 -22.09)"/><path class="cls-2" d="M760.77,250.86s8.79,17.2,3.05,31.88c-7.19,18.35-20.12,27.05-20.12,27.05s-6.57-19.55-4.14-30.9C743,262.94,760.77,250.86,760.77,250.86Z" transform="translate(-56.95 -22.09)"/><path class="cls-2" d="M661.49,263.32s11.91,14.71,27.35,15.4c19.29.88,32.22-7.24,32.22-7.24s-14.9-13.65-26-16C679.39,252.21,661.49,263.32,661.49,263.32Z" transform="translate(-56.95 -22.09)"/><path class="cls-2" d="M724.37,207s11.4,15.11,8.35,30.26c-3.82,18.93-14.81,29.53-14.81,29.53s-9.67-17.75-9.25-29.12C709.25,221.72,724.37,207,724.37,207Z" transform="translate(-56.95 -22.09)"/><path class="cls-2" d="M630.28,235.7s14,12.17,29,10.2c18.77-2.44,29.87-12.47,29.87-12.47s-16.7-10.64-27.85-11C645.67,221.91,630.28,235.7,630.28,235.7Z" transform="translate(-56.95 -22.09)"/><path class="cls-2" d="M681.39,170.66S695,183.29,694.6,198.44c-.45,18.92-9.26,31-9.26,31S673,214,671.47,202.93C669.31,187.41,681.39,170.66,681.39,170.66Z" transform="translate(-56.95 -22.09)"/><path class="cls-2" d="M594.94,214.05s15.59,9.37,29.75,4.92c17.71-5.56,26.71-17.12,26.71-17.12s-17.92-7.43-28.75-5.88C607.46,198.14,594.94,214.05,594.94,214.05Z" transform="translate(-56.95 -22.09)"/><path class="cls-2" d="M633.2,142.59s15.25,9.89,17.49,24.56c2.77,18.34-3.68,31.52-3.68,31.52s-14.55-12.85-17.9-23.24C624.39,160.82,633.2,142.59,633.2,142.59Z" transform="translate(-56.95 -22.09)"/><path class="cls-2" d="M557,199.05s16.64,6.39,29.54-.32c16.15-8.37,22.86-21.07,22.86-21.07s-18.55-4.11-28.74-.78C566.39,181.57,557,199.05,557,199.05Z" transform="translate(-56.95 -22.09)"/><path class="cls-2" d="M581.77,123.57s16.42,6.94,21.05,20.74c5.8,17.21,1.83,31,1.83,31s-16.23-9.92-21.24-19.38C576.39,142.66,581.77,123.57,581.77,123.57Z" transform="translate(-56.95 -22.09)"/><path class="cls-2" d="M581.05,166.07s-12.29,6.94-23.18,3.2c-13.61-4.68-20.34-13.85-20.34-13.85s14.06-5.38,22.41-4C571.67,153.47,581.05,166.07,581.05,166.07Z" transform="translate(-56.95 -22.09)"/><path class="cls-1" d="M517.44,299.82l-1,1-6.19-6.19-4.14,4.13-25.44-25.45c-.05,0,.33-1,0-1.45a1.29,1.29,0,0,0-1-.55c-.38,0-.59-.07-.86.2-.1.1-.09-.07-.19-.16l-.51-.51c-.09-.1-.24.29-.14.2l1.07-1.07a1.44,1.44,0,0,0,.09-1.71,1.53,1.53,0,0,0-1-.66,1.4,1.4,0,0,0-1.12.27l-.25.26c-.1.09.36-.38.26-.47l-.51-.51c-.1-.1-.88,0-.78-.06l1.06-1.05a1.16,1.16,0,0,0,.31-1.49,2,2,0,0,0-1.13-.77c-.38,0-1-.1-1.23.17l-.21.21c-.1.1-.07.94-.17.84l-.72-.73a2.25,2.25,0,0,1-.14-1.14l1.31-1.32c.44-.43.75-.88.43-1.37-.21-.33-.29-.27-.67-.31s-.5.36-.77.63l-.42.42a1.29,1.29,0,0,1-.86-.09l-1-1c-.09-.1-.31-.89-.21-1l1.39-1.38c.43-.44.73-.91.4-1.4a.83.83,0,0,0-.53-.4c2.59-7.16,1.5-14.29-2.95-18.74a15.44,15.44,0,0,0-11-4.3A24.9,24.9,0,0,0,446,236.67l-.36-.36a1.65,1.65,0,0,0-2.38-.05,1.7,1.7,0,0,0-.06,2.34c-.27.22-.78.68-.8.66l-.73-.72a2.21,2.21,0,1,0-3.1,3.1l.75.75a6.53,6.53,0,0,0-1,1.26,2.15,2.15,0,0,0-3,3l.48.48c-4.43,8-4.22,17.38,1.22,22.82,4.37,4.37,11.51,5.47,18.57,3a1.14,1.14,0,0,0,.21.37c.21.32.36.3.74.34s.57-.33.84-.6l1.43-1.43c.09-.08.22.77.3.85l1.05,1c.08.09.8.09.72.18l-.42.42c-.44.44-.67,1-.34,1.46.21.33.24.23.62.27s.46-.4.73-.67l1.36-1.36c.08-.09.38.69.46.77l.78.78c.08.08-.13-.6-.21-.52l-.21.21a1.68,1.68,0,0,0,.06,1.87,1.29,1.29,0,0,0,2,.22l1.1-1.1c.09-.09.33.3.41.39l.56.55c.08.08.15,0,.07.09l-.25.25a1.33,1.33,0,0,0-.16,1.65,1.67,1.67,0,0,0,1.05.69,1.48,1.48,0,0,0,1.15-.25l1.12-1.11c.08-.09.06-.34.15-.25l.55.55a.25.25,0,0,1,0,.33,1.31,1.31,0,0,0-.21,1.62c.22.33.36.35.74.39s.56-.28.83-.55l.22-.23,47.53,47.53,7.23-7.24-3.1-3.1,2.07-2.06-6.2-6.2L525.7,304l6.48,6.48c.06.07,0,.27.07.27.6,0,2.87-2.61,4.33-4.29l-.09.06-19-19.05-6.2,6.2Zm-76-33.5c-3.14-3.14-4.73-9,5.53-19.3s16.15-8.67,19.29-5.53c2.73,2.73,3.84,5.62,3.39,8.85-.5,3.55-3,7.58-7.39,12C451.11,273.44,445,269.93,441.41,266.32Z" transform="translate(-56.95 -22.09)"/><path class="cls-1" d="M469.73,293.62l-6.2-6.2-19,19.05-.09-.06c1.46,1.68,3.74,4.27,4.33,4.29.09,0,0-.2.07-.27l6.48-6.48,5.16,5.17-6.19,6.2,2.06,2.06-3.1,3.1,7.23,7.24L508,280.19l.22.23c.28.27.45.59.83.55s.53-.06.74-.39a1.31,1.31,0,0,0-.21-1.62.26.26,0,0,1,0-.33l.55-.55c.09-.09.07.16.16.25l1.11,1.11a1.48,1.48,0,0,0,1.15.25,1.67,1.67,0,0,0,1-.69,1.34,1.34,0,0,0-.15-1.65l-.25-.25c-.09-.08,0,0,.07-.09l.55-.55c.09-.09.32-.48.41-.39l1.1,1.1a1.29,1.29,0,0,0,1,.36,1.27,1.27,0,0,0,.94-.58,1.68,1.68,0,0,0,.07-1.87l-.22-.21c-.08-.08-.29.6-.2.52l.77-.78c.08-.08.38-.86.47-.77l1.35,1.36c.28.27.35.71.73.67s.41.06.62-.27c.33-.49.1-1-.33-1.46l-.43-.42c-.08-.09.64-.09.73-.18l1-1c.08-.08.21-.93.3-.85l1.43,1.43c.27.27.45.64.84.6s.53,0,.74-.34a1.14,1.14,0,0,0,.21-.37c7.06,2.44,14.2,1.34,18.58-3,5.43-5.44,5.64-14.85,1.21-22.82l.48-.48a2.15,2.15,0,0,0-3-3,6.08,6.08,0,0,0-1-1.26l.75-.75a2.21,2.21,0,1,0-3.1-3.1l-.72.72s-.54-.44-.81-.66a1.7,1.7,0,0,0-.06-2.34,1.65,1.65,0,0,0-2.38.05l-.36.36a24.9,24.9,0,0,0-12.64-3.75,15.45,15.45,0,0,0-11,4.3c-4.45,4.45-5.54,11.58-2.95,18.74a.85.85,0,0,0-.53.4c-.32.49,0,1,.41,1.4l1.38,1.38c.1.1-.11.89-.21,1l-1,1a1.27,1.27,0,0,1-.85.09l-.43-.42c-.27-.27-.38-.67-.76-.63s-.46,0-.68.31c-.32.49,0,.94.43,1.37l1.32,1.32a2.49,2.49,0,0,1-.14,1.14l-.73.73c-.1.1-.07-.74-.17-.84l-.21-.21c-.27-.27-.84-.21-1.23-.17a2,2,0,0,0-1.13.77,1.17,1.17,0,0,0,.32,1.49l1.05,1.05c.1.1-.68,0-.78.06l-.51.51c-.09.09.36.56.26.47l-.25-.26a1.39,1.39,0,0,0-1.11-.27,1.55,1.55,0,0,0-1,.66,1.43,1.43,0,0,0,.1,1.71l1.07,1.07c.09.09-.06-.3-.15-.2l-.51.51c-.1.09-.09.26-.19.16-.27-.27-.48-.24-.86-.2a1.33,1.33,0,0,0-1,.55c-.29.46.09,1.4.05,1.45L474.9,298.79l-4.13-4.13-6.2,6.19-1-1Zm49-31.3c-4.4-4.4-6.89-8.43-7.39-12-.45-3.23.66-6.12,3.39-8.85,3.14-3.14,9-4.73,19.29,5.53s8.67,16.16,5.53,19.3C536,269.93,529.86,273.44,518.74,262.32Z" transform="translate(-56.95 -22.09)"/><text class="cls-3" transform="matrix(0.26, 0.97, -0.97, 0.26, 2.95, 502.93)">C</text><text class="cls-3" transform="matrix(0.5, 0.86, -0.86, 0.5, 32.2, 606.76)">O</text><text class="cls-3" transform="translate(95.59 708.53) rotate(45.94)">L</text><text class="cls-3" transform="translate(158.08 771.32) rotate(34.33)">L</text><text class="cls-3" transform="matrix(0.92, 0.38, -0.38, 0.92, 232.01, 820.29)">E</text><text class="cls-3" transform="matrix(0.99, 0.15, -0.15, 0.99, 316.16, 855.31)">G</text><text class="cls-3" transform="translate(434.93 869.85) rotate(-5.07)">E</text><text class="cls-3" transform="translate(519.62 860.06) rotate(-13.35)"> </text><text class="cls-3" transform="translate(561.16 852.36) rotate(-23.54)">M</text><text class="cls-3" transform="matrix(0.77, -0.63, 0.63, 0.77, 667.64, 803.82)">A</text><text class="cls-3" transform="matrix(0.63, -0.78, 0.78, 0.63, 744.05, 741.09)">T</text><text class="cls-3" transform="translate(802.94 667.68) rotate(-63.65)">C</text><text class="cls-3" transform="translate(847.24 572.42) rotate(-76.23)">H</text><text class="cls-4" transform="translate(308.61 467.63) scale(1.07 1)">C</text><text class="cls-4" transform="translate(453.13 469.01) scale(1.07 1)">M</text></svg>