<svg id="Layer_1" data-name="Layer 1" xmlns="http://www.w3.org/2000/svg" viewBox="0 0 745.13 858.21"><defs><style>.cls-1{fill:#022c46;}.cls-2{font-size:289.75px;fill:#fff;stroke:#fff;stroke-width:3px;}.cls-2,.cls-3,.cls-4{stroke-miterlimit:10;font-family:Arenq;}.cls-3{font-size:144.24px;}.cls-3,.cls-4{fill:#231f20;stroke:#231f20;stroke-width:2px;}.cls-4{font-size:140.79px;}.cls-5{letter-spacing:-0.15em;}.cls-6{letter-spacing:-0.05em;}</style></defs><title>College Match Logo</title><path class="cls-1" d="M860.48,569.13s-53.06,29.7-173.12-18-191.22,3.59-191.22,13V114c0-9.46,71.8-60.73,191.89-13S860.48,119,860.48,119Z" transform="translate(-145.47 -80.9)"/><path class="cls-1" d="M311.64,100.91c-12.7,5,1.31,0-34.14,12.6l-49.18,13.18c-35.36,5.5-75.7-7.69-75.7-7.69V569.13s37.43,29.7,157.5-18,175.61,3.59,175.61,13V114C485.73,104.49,431.7,53.22,311.64,100.91Z" transform="translate(-145.47 -80.9)"/><text class="cls-2" transform="translate(54.06 347.26) scale(1.07 1)">C</text><text class="cls-2" transform="translate(411.01 350.66) scale(1.07 1)">M</text><text class="cls-3" transform="translate(1 651.22)">COLLEGE </text><text class="cls-4" transform="translate(19.6 818.17) scale(1.37 1.08)">M<tspan class="cls-5" x="114.18" y="0">A</tspan><tspan class="cls-6" x="212.16" y="0">T</tspan><tspan x="303.68" y="0">CH</tspan></text></svg>